<svg xmlns="http://www.w3.org/2000/svg" width="82.582" height="52.601" viewBox="0 0 82.582 52.601">
  <g id="그룹_36969" data-name="그룹 36969" transform="translate(-1 -2.399)">
    <path id="패스_4529" data-name="패스 4529" d="M1.65,11.077s3.689,1.456,6.018,2.136L6.406,18.939A39.57,39.57,0,0,1,0,17.483Z" transform="translate(42.858 5.755)" fill="#d446ff"/>
    <path id="패스_4531" data-name="패스 4531" d="M55.384,6.7S58.1,7.862,60.432,8.736a72.928,72.928,0,0,1,3.883-7.474S61.5.291,60.528,0c0,0-3.979,5.047-5.144,6.7" transform="translate(6.169 37.907)" fill="#f2c23b"/>
    <path id="패스_4532" data-name="패스 4532" d="M40.4,37.582s2.136,3.592,8.153,6.212l-2.523,3.883s-5.824-2.329-8.251-6.406Z" transform="translate(-14.851 -1.033)" fill="#ff906a"/>
    <path id="패스_4533" data-name="패스 4533" d="M3.059,76.154l5.338.873s-3.689,3.3-2.233,10.483L1.7,85.86S.534,82.269,3.059,76.154" transform="translate(-0.431 -32.511)" fill="#3aa3ff"/>
    <path id="패스_4540" data-name="패스 4540" d="M1.628,0,6.966.873s-3.689,3.3-2.233,10.483L.268,9.706S-.9,6.115,1.628,0" transform="translate(83.582 6.469) rotate(111)" fill="#f0b3b3"/>
    <path id="패스_4536" data-name="패스 4536" d="M0,7.118,4.659,9.059,8.671,1.424,5.047,0Z" transform="translate(22.929 8.793) rotate(112)" fill="#00ffcb"/>
  </g>
</svg>
