<svg xmlns="http://www.w3.org/2000/svg" width="95" height="59" viewBox="0 0 95 59">
  <g id="그룹_36971" data-name="그룹 36971" transform="translate(-220 -315)">
    <rect id="사각형_14723" data-name="사각형 14723" width="95" height="59" transform="translate(220 315)" fill="none"/>
    <g id="그룹_36967" data-name="그룹 36967" transform="translate(-1 2)">
      <path id="패스_4539" data-name="패스 4539" d="M1.412,0S4.568,1.246,6.561,1.827l-1.08,4.9A33.858,33.858,0,0,1,0,5.482Z" transform="matrix(0.788, 0.616, -0.616, 0.788, 262.417, 314.469)" fill="#ff906a"/>
      <path id="패스_4537" data-name="패스 4537" d="M1.775,11.077s3.967,1.566,6.473,2.3L6.89,19.533A42.56,42.56,0,0,1,0,17.967Z" transform="translate(294.966 344.117)" fill="#ff906a"/>
      <path id="패스_4530" data-name="패스 4530" d="M361.386,5.635s4.055-1.323,6.451-2.358l2.882,5.611a42.581,42.581,0,0,1-6.307,3.187Z" transform="translate(-115.437 330.496)" fill="#00ffcb"/>
      <path id="패스_4538" data-name="패스 4538" d="M0,7.2S2.924,8.456,5.429,9.4A78.441,78.441,0,0,1,9.6,1.357S6.577.313,5.533,0c0,0-4.28,5.428-5.533,7.2" transform="matrix(-0.391, 0.921, -0.921, -0.391, 315.615, 327.48)" fill="#f2c23b"/>
      <path id="패스_4534" data-name="패스 4534" d="M295.912,13.832s1.949,3.619,1.114,10.719a16.285,16.285,0,0,0,4.593-2.088s1.254-7.1-.835-12.11Z" transform="translate(-21.231 323.422)" fill="#ffa39f"/>
      <path id="패스_4535" data-name="패스 4535" d="M331.253,52.294l5.012,2.088,4.315-8.213-3.9-1.531Z" transform="translate(-85.304 312.269)" fill="#3aa3ff"/>
    </g>
  </g>
</svg>
