<svg xmlns="http://www.w3.org/2000/svg" width="50" height="50" viewBox="0 0 50 50">
  <g id="그룹_55170" data-name="그룹 55170" transform="translate(-246.102 -337.102)">
    <g id="그룹_53911" data-name="그룹 53911" transform="translate(248.676 343.846)">
      <g id="그룹_53912" data-name="그룹 53912" transform="translate(0 0)">
        <path id="패스_34250" data-name="패스 34250" d="M23.958,7.269,21.725,5.037a2.8,2.8,0,0,1-.885-1.779,2.436,2.436,0,0,1,.8-1.895,2.564,2.564,0,0,1,3.8-.041L35.828,11.71a13.579,13.579,0,0,1,2.192,2.917,32.04,32.04,0,0,0,4.437,6.388,18.249,18.249,0,0,0,2.189,2.039l.022.015a2.2,2.2,0,0,1,.688,2.383A16.718,16.718,0,0,1,40.8,32.378c-3.152,3.152-5.653,4.065-7.086,4.3a2.206,2.206,0,0,1-1.957-.575l-.009-.009a11.117,11.117,0,0,0-2.07-1.514,10.814,10.814,0,0,0-5.341-1.845c-2.567-.4-6.248-3.221-8.44-3.756l-9.181-.731a2.555,2.555,0,0,1-2.437-3.123,2.735,2.735,0,0,1,2.809-2.433l9.378-.216L1.285,7.3A2.674,2.674,0,0,1,5,3.451L16.388,14.84l0,0-4.7-4.692a2.675,2.675,0,1,1,3.784-3.784l4.7,4.692L16.66,7.538a2.675,2.675,0,1,1,3.783-3.784l1.282,1.282Z" transform="translate(-0.5 -0.5)" fill="#f39a96" stroke="#d46064" stroke-linecap="round" stroke-linejoin="round" stroke-width="1"/>
      </g>
    </g>
    <rect id="사각형_20358" data-name="사각형 20358" width="50" height="50" transform="translate(246.102 337.102)" fill="none"/>
  </g>
</svg>
