<svg xmlns="http://www.w3.org/2000/svg" width="36.313" height="129.732" viewBox="0 0 36.313 129.732">
  <g id="그룹_55354" data-name="그룹 55354" transform="translate(-590.688 200) rotate(-90)">
    <rect id="사각형_20513" data-name="사각형 20513" width="24" height="24" transform="translate(176 603)" fill="none"/>
    <path id="합치기_12" data-name="합치기 12" d="M8269.347,19128.148a1,1,0,0,1-1-1v-32.168a1,1,0,0,1,1-1h119.519a1,1,0,0,1,1,1v20.729h4.315a1,1,0,0,1,.769,1.643l-8.185,9.869a1,1,0,0,1-1.536,0l-8.186-9.869a1,1,0,0,1,.769-1.643h4.32v-13.994H8276.081v25.434a1.006,1.006,0,0,1-1,1Z" transform="translate(-8198.08 -18503.291)" fill="#e8e8e8"/>
  </g>
</svg>
