<svg xmlns="http://www.w3.org/2000/svg" width="161" height="11.199" viewBox="0 0 161 11.199">
  <g id="그룹_54365" data-name="그룹 54365" transform="translate(-108.5 -838.301)" opacity="0.3">
    <path id="패스_34182" data-name="패스 34182" d="M241.5,104.5H84.5a.5.5,0,0,1-.5-.5V94a.5.5,0,0,1,1,0v9.5H241V94a.5.5,0,0,1,1,0v10A.5.5,0,0,1,241.5,104.5Z" transform="translate(24.5 745)"/>
    <path id="패스_34353" data-name="패스 34353" d="M.61,6.229a.5.5,0,0,1-.351-.856L2.942,2.729.259.085A.5.5,0,0,1,.254-.622.5.5,0,0,1,.961-.628l3.044,3a.5.5,0,0,1,0,.712l-3.044,3A.5.5,0,0,1,.61,6.229Z" transform="translate(263.271 842.455) rotate(-90)"/>
  </g>
</svg>
