<svg xmlns="http://www.w3.org/2000/svg" width="30.937" height="7" viewBox="0 0 30.937 7">
  <g id="그룹_54374" data-name="그룹 54374" transform="translate(-287.085 -420.342)" opacity="0.3">
    <g id="그룹_54365" data-name="그룹 54365" transform="translate(317.522 420.842) rotate(90)">
      <path id="패스_34353" data-name="패스 34353" d="M0,6.5a.5.5,0,0,1-.356-.149.5.5,0,0,1,.005-.707L2.332,3-.351.356A.5.5,0,0,1-.356-.351.5.5,0,0,1,.351-.356l3.044,3a.5.5,0,0,1,0,.712l-3.044,3A.5.5,0,0,1,0,6.5Z" transform="translate(0 3.044) rotate(-90)"/>
    </g>
    <g id="그룹_54373" data-name="그룹 54373" transform="translate(290.629 420.842) rotate(90)">
      <path id="패스_34353-2" data-name="패스 34353" d="M0,6.5a.5.5,0,0,1-.356-.149.5.5,0,0,1,.005-.707L2.332,3-.351.356A.5.5,0,0,1-.356-.351.5.5,0,0,1,.351-.356l3.044,3a.5.5,0,0,1,0,.712l-3.044,3A.5.5,0,0,1,0,6.5Z" transform="translate(6 0) rotate(90)"/>
    </g>
    <path id="패스_34354" data-name="패스 34354" d="M-15478.417-697.658h-30v-1h30Z" transform="translate(15796.002 1122)"/>
  </g>
</svg>
