<svg id="감정일기_작성" data-name="감정일기, 작성" xmlns="http://www.w3.org/2000/svg" width="24" height="24" viewBox="0 0 24 24">
  <path id="패스_5594" data-name="패스 5594" d="M2613.981,1092.7l-.26,2.481a1.121,1.121,0,0,0,1.231,1.229l2.481-.259a2.1,2.1,0,0,0,1.268-.6l5.57-5.57-4.116-4.116-5.57,5.569A2.1,2.1,0,0,0,2613.981,1092.7Z" transform="translate(-2608.528 -1077.301)" fill="#fff"/>
  <path id="패스_5595" data-name="패스 5595" d="M2625.732,1087.705a1.525,1.525,0,0,0,.4-.7,1.534,1.534,0,0,0-.4-1.5l-1.912-1.913a1.635,1.635,0,0,0-.246-.2,1.533,1.533,0,0,0-.559-.228,1.584,1.584,0,0,0-.462-.013,1.461,1.461,0,0,0-.236.043,1.623,1.623,0,0,0-.7.4l-1.75,1.751,4.116,4.117Z" transform="translate(-2607.067 -1077.949)" fill="#fff"/>
  <rect id="사각형_5669" data-name="사각형 5669" width="24" height="24" fill="none"/>
</svg>
