<svg id="menu_공황기록_on" xmlns="http://www.w3.org/2000/svg" width="34" height="34" viewBox="0 0 34 34">
  <g id="그룹_55302" data-name="그룹 55302" transform="translate(5.317 5.1)">
    <g id="그룹_55301" data-name="그룹 55301" transform="translate(0.001 0)">
      <path id="패스_35698" data-name="패스 35698" d="M2.37,10.791.082,15.345a.752.752,0,0,0,.673,1.091H2.37v3.8A1.567,1.567,0,0,0,4.2,21.775l2.889-.5.028,1.565a.958.958,0,0,0,1.115.946l9.212-.061a.9.9,0,0,0,.751-.885v-4.8a4.061,4.061,0,0,1,1.054-2.758,9.336,9.336,0,0,0,1.58-9.036A9.628,9.628,0,0,0,10.1.176,9.7,9.7,0,0,0,2.37,10.791" transform="translate(-0.001 0)" fill="#49b578"/>
    </g>
    <path id="패스_35699" data-name="패스 35699" d="M2.94,1.125,0,5.948H2.383L.915,9.889,6.6,3.817H4.279L6.173,1.125Z" transform="translate(8.384 6.089)" fill="#fff" stroke="#fff" stroke-linecap="round" stroke-linejoin="round" stroke-width="0.5"/>
  </g>
  <rect id="사각형_20801" data-name="사각형 20801" width="34" height="34" fill="none"/>
</svg>
