<svg id="menu_주간처방_on" xmlns="http://www.w3.org/2000/svg" width="34" height="34" viewBox="0 0 34 34">
  <g id="그룹_55304" data-name="그룹 55304" transform="translate(7.391 5.5)">
    <g id="그룹_47623" data-name="그룹 47623">
      <path id="패스_20586" data-name="패스 20586" d="M16.867,3.488H15.61V4.8a1.5,1.5,0,0,1-1.5,1.5h-9a1.5,1.5,0,0,1-1.5-1.5V3.488H2.353A2.355,2.355,0,0,0,0,5.841V20.3a2.355,2.355,0,0,0,2.353,2.353H16.867A2.355,2.355,0,0,0,19.22,20.3V5.841a2.355,2.355,0,0,0-2.353-2.353" fill="#49b578"/>
      <path id="패스_20587" data-name="패스 20587" d="M5.864,12.946l2.758,2.68,4.734-4.894" fill="none" stroke="#fff" stroke-linecap="round" stroke-linejoin="round" stroke-width="1.6"/>
      <path id="패스_20588" data-name="패스 20588" d="M14,1.856H12.292a2.471,2.471,0,0,0-4.787,0H5.8a.464.464,0,0,0-.463.462V4.385a.464.464,0,0,0,.463.462H14a.464.464,0,0,0,.463-.462V2.319A.464.464,0,0,0,14,1.856" transform="translate(-0.289 0.093)" fill="#49b578"/>
    </g>
  </g>
  <rect id="사각형_20803" data-name="사각형 20803" width="34" height="34" fill="none"/>
</svg>
