<svg id="header_감정일기" xmlns="http://www.w3.org/2000/svg" width="34" height="34" viewBox="0 0 34 34">
  <path id="패스_5594" data-name="패스 5594" d="M2614.047,1094.412l-.324,3.1a1.4,1.4,0,0,0,1.539,1.536l3.1-.323a2.626,2.626,0,0,0,1.584-.755l6.962-6.962-5.146-5.146-6.962,6.961A2.626,2.626,0,0,0,2614.047,1094.412Z" transform="translate(-2605.689 -1072.612)" fill="#49b578"/>
  <path id="패스_5595" data-name="패스 5595" d="M2627.2,1088.847a1.911,1.911,0,0,0,.5-.877,1.918,1.918,0,0,0-.5-1.877l-2.39-2.392a2.051,2.051,0,0,0-.307-.25,1.921,1.921,0,0,0-.7-.284,1.981,1.981,0,0,0-.577-.017,1.837,1.837,0,0,0-.295.054,2.027,2.027,0,0,0-.878.5l-2.187,2.189,5.146,5.146Z" transform="translate(-2600.973 -1075.479)" fill="#49b578"/>
  <rect id="사각형_5669" data-name="사각형 5669" width="34" height="34" fill="none"/>
</svg>
