<svg id="logo" xmlns="http://www.w3.org/2000/svg" width="210" height="52" viewBox="0 0 210 52">
  <rect id="사각형_19662" data-name="사각형 19662" width="210" height="52" fill="none"/>
  <path id="합치기_19" data-name="합치기 19" d="M20350.367,7349.063v-.051c0-8.88,4.709-13.149,11.186-13.149a10.335,10.335,0,0,1,8.824,4.351l-3.717,3.717a5.663,5.663,0,0,0-5.107-2.474c-3.031.23-4.8,2.551-4.8,7.556v.051c0,5,1.773,7.321,4.8,7.556a5.663,5.663,0,0,0,5.107-2.474l3.717,3.711a10.326,10.326,0,0,1-8.824,4.356C20355.076,7362.212,20350.367,7357.943,20350.367,7349.063Zm-25.611-.051c0-8.88,4.713-13.149,11.186-13.149,6.283,0,11.186,4.269,11.186,13.149s-4.9,13.2-11.186,13.2C20329.469,7362.212,20324.756,7357.892,20324.756,7349.012Zm6.379,0c0,5,1.77,7.607,4.807,7.607,3,0,4.811-2.6,4.811-7.607s-1.814-7.556-4.811-7.556C20332.9,7341.456,20331.135,7344.007,20331.135,7349.012Zm-15.99,12.95v-2.5a7.809,7.809,0,0,1-5.891,2.5c-5.74,0-10.254-3.973-10.254-13.3,0-9.269,4.76-13.046,10.107-13.046a6.552,6.552,0,0,1,5.3,2.208V7326h6.375v35.96Zm-9.719-13.1c0,4.908,1.717,7.213,4.959,7.213a4.2,4.2,0,0,0,4.217-3.144v-8.487a4.313,4.313,0,0,0-4.217-3.139C20307.143,7341.308,20305.426,7343.961,20305.426,7348.864Z" transform="translate(-20178.691 -7320.074)" fill="#49b578" stroke="rgba(0,0,0,0)" stroke-miterlimit="10" stroke-width="1"/>
  <path id="합치기_18" data-name="합치기 18" d="M5.09,15.452V10.361H0V5.089H5.09V0h5.27V5.089h5.092v5.272H10.36v5.091Z" transform="translate(192.551 4.387)" fill="#49b578" stroke="rgba(0,0,0,0)" stroke-miterlimit="10" stroke-width="1"/>
  <path id="합치기_17" data-name="합치기 17" d="M20290.674,7364.943h-1.91v-31.234h5.641v2.354a7.612,7.612,0,0,1,6.035-2.8c5.6,0,10.109,3.732,10.109,13.59,0,9.766-4.76,12.807-10.109,12.807a7.2,7.2,0,0,1-5.3-1.96v7.243Zm4.268-22.65v8.538a4.273,4.273,0,0,0,4.225,3.086c3.234,0,4.953-2.4,4.953-7.55,0-4.909-1.719-7.166-4.953-7.166A4.221,4.221,0,0,0,20294.941,7342.292Zm80.758,3.926v-.051c0-8.881,4.709-13.145,11.184-13.145a10.331,10.331,0,0,1,8.824,4.351l-3.715,3.716a5.677,5.677,0,0,0-5.109-2.478c-3.029.23-4.807,2.554-4.807,7.555v.051c0,5.006,1.777,7.325,4.807,7.555a5.678,5.678,0,0,0,5.109-2.472l3.715,3.716a10.343,10.343,0,0,1-8.824,4.351C20380.408,7359.369,20375.7,7355.1,20375.7,7346.219Zm-61.863,5.938c0-6.183,5.543-9.224,14.326-8.589v-.88c0-2.652-2.016-3.926-4.371-3.926a6.858,6.858,0,0,0-5.1,2.457l-3.777-3.777.588-.64a11.7,11.7,0,0,1,8.979-3.777c5.641,0,9.955,3.286,9.955,8.927v16.979h-5.59v-1.72c-1.279,1.372-3.777,2.16-6.428,2.16C20317.563,7359.369,20313.836,7357.208,20313.836,7352.156Zm6.326-.64c0,1.766,1.131,2.749,3.68,2.749a8.221,8.221,0,0,0,4.32-1.131v-4.852c-.748-.073-1.437-.108-2.074-.108C20322,7348.174,20320.162,7349.607,20320.162,7351.517Zm35.227,7.407h-1.914v-15.6c0-3.041-1.424-4.366-3.875-4.366a4.171,4.171,0,0,0-3.777,2.16v17.808h-6.332v-25.465h6.332v2.063a8.6,8.6,0,0,1,5.938-2.549c4.412,0,8.041,3.041,8.041,9.126v16.825Zm9.516-.246v-25.46h6.383v25.46Zm-.932-32.934a4.123,4.123,0,1,1,4.125,4.121A4.126,4.126,0,0,1,20363.973,7325.744Z" transform="translate(-20278.523 -7317.232)" stroke="rgba(0,0,0,0)" stroke-miterlimit="10" stroke-width="1"/>
</svg>
